<svg version="1.0" xmlns="http://www.w3.org/2000/svg"
 width="200.000000pt" height="200.000000pt" viewBox="0 0 200.000000 200.000000"
 preserveAspectRatio="xMidYMid meet">
<g transform="translate(0.000000,200.000000) scale(0.100000,-0.100000)"
fill="#000000" stroke="none">
<path d="M925 1550 l-179 -179 63 -238 c35 -131 69 -243 75 -249 12 -12 167
-56 174 -50 2 2 0 20 -3 39 -6 33 -11 37 -56 48 -28 7 -54 18 -58 24 -9 11
-103 356 -98 361 8 8 360 -94 367 -107 4 -8 27 -84 49 -169 23 -85 44 -163 47
-174 5 -16 2 -18 -21 -12 -27 7 -27 6 -21 -25 3 -17 6 -35 6 -39 0 -5 23 -14
51 -20 l51 -13 179 179 c99 98 179 186 179 194 0 8 -29 120 -64 249 l-63 234
-234 63 c-129 35 -241 64 -249 64 -8 0 -96 -81 -195 -180z m397 53 l178 -47
-136 -137 -136 -137 -142 38 c-77 21 -161 43 -185 50 l-44 12 134 134 c73 74
138 134 143 134 5 0 90 -21 188 -47z m284 -291 l48 -183 -134 -134 c-74 -74
-136 -133 -138 -131 -2 3 -25 84 -52 183 l-49 178 137 137 c75 76 137 136 138
135 1 -1 23 -84 50 -185z"/>
<path d="M447 1072 c-97 -97 -177 -184 -177 -192 0 -8 29 -120 64 -249 l63
-234 234 -63 c129 -35 241 -64 249 -64 8 0 96 81 194 179 l180 180 -63 238
c-35 131 -68 243 -75 249 -12 12 -167 56 -174 50 -2 -2 0 -20 3 -39 6 -33 11
-36 55 -47 27 -7 53 -17 58 -23 10 -13 104 -358 99 -363 -5 -6 -358 93 -366
102 -4 5 -27 83 -51 174 -24 91 -45 171 -48 179 -4 11 1 12 23 7 27 -7 28 -6
21 25 -3 17 -6 35 -6 39 0 7 -75 30 -97 30 -5 0 -88 -80 -186 -178z m184 26
c6 -24 28 -107 49 -184 l38 -142 -137 -136 -137 -137 -49 186 -49 186 135 135
c73 74 135 134 136 134 1 0 7 -19 14 -42z m326 -429 c87 -23 164 -45 170 -48
8 -4 -36 -55 -122 -141 l-134 -134 -186 49 -186 49 138 138 c76 76 143 136
150 134 6 -3 82 -24 170 -47z"/>
</g>
</svg>
