<?xml version="1.0" standalone="no"?>
<!DOCTYPE svg PUBLIC "-//W3C//DTD SVG 20010904//EN"
 "http://www.w3.org/TR/2001/REC-SVG-20010904/DTD/svg10.dtd">
<svg version="1.0" xmlns="http://www.w3.org/2000/svg"
 width="200.000000pt" height="200.000000pt" viewBox="0 0 200.000000 200.000000"
 preserveAspectRatio="xMidYMid meet">
<metadata>
Created by potrace 1.11, written by Peter Selinger 2001-2013
</metadata>
<g transform="translate(0.000000,200.000000) scale(0.100000,-0.100000)"
fill="#000000" stroke="none">
<path d="M930 1551 c-124 -126 -174 -183 -172 -197 2 -10 19 -77 39 -149 19
-71 36 -137 38 -145 1 -8 13 -52 25 -96 l23 -82 61 -16 c124 -32 116 -33 106
5 -6 19 -10 34 -10 35 0 0 -25 7 -55 14 -48 12 -55 16 -61 44 -3 17 -26 103
-50 190 -24 88 -42 161 -41 162 4 3 372 -98 379 -104 3 -4 21 -61 38 -127 17
-66 40 -150 50 -187 l19 -67 -29 6 c-29 5 -29 5 -20 -28 6 -19 10 -34 10 -35
0 -1 12 -4 28 -7 15 -3 34 -8 43 -12 13 -5 65 42 198 174 l181 180 -65 242
c-35 133 -66 244 -68 246 -4 4 -484 134 -489 132 -2 0 -82 -80 -178 -178z
m278 88 c42 -11 126 -34 186 -49 59 -16 110 -31 112 -33 2 -1 -59 -66 -136
-142 l-139 -139 -88 23 c-48 13 -135 36 -193 51 l-105 28 140 141 c77 77 141
141 143 141 1 0 37 -9 80 -21z m383 -250 c17 -63 39 -148 49 -189 l19 -75
-132 -132 c-73 -73 -137 -133 -142 -133 -9 0 -105 336 -105 365 0 11 272 286
277 281 2 -2 18 -55 34 -117z"/>
<path d="M448 1068 l-178 -178 65 -242 c62 -228 73 -257 102 -258 9 0 385
-100 435 -116 20 -6 380 348 373 368 -5 17 -76 279 -80 298 -1 8 -13 52 -25
96 l-23 82 -83 22 c-47 13 -86 21 -88 19 -2 -2 1 -18 5 -35 8 -27 15 -32 62
-43 l54 -12 16 -62 c8 -34 31 -120 51 -192 19 -71 34 -130 33 -131 -4 -3 -372
98 -379 104 -3 4 -21 61 -38 127 -17 66 -40 150 -50 187 l-19 67 29 -6 c29 -5
29 -5 20 27 -11 40 -6 36 -60 47 l-45 9 -177 -178z m227 -112 c25 -92 45 -173
45 -179 0 -7 -63 -75 -140 -152 -77 -77 -140 -137 -140 -133 0 4 -11 49 -26
100 -14 51 -27 101 -29 112 -3 10 -12 44 -21 75 -9 31 -18 65 -20 75 -5 26
267 302 278 282 4 -7 28 -88 53 -180z m244 -271 c75 -20 158 -43 184 -52 l49
-15 -139 -139 c-82 -83 -144 -138 -153 -135 -8 2 -78 20 -155 40 -77 21 -158
42 -179 47 l-39 11 139 139 c76 76 143 139 148 139 5 0 70 -16 145 -35z"/>
</g>
</svg>
